# xmcd
#
# Track frame offsets:
#	150
#	18922
#	34319
#	51506
#	71419
#	91954
#	108729
#	124389
#	140682
#	153938
#	170421
#	187359
#
# Disc length: 2720 seconds
#
# Revision: 1
# Processed by: cddbd v1.5.2PL0 Copyright (c) Steve Scherf et al.
# Submitted via: audiograbber 1.83.01
#
DISCID=b20a9e0c
DTITLE=Clark Steelman - Over The Years Clark Steelman
DYEAR=1900
DGENRE=
TTITLE0=Back Together Again
TTITLE1=Nobody Else
TTITLE2=Long As You Cove Me Tonight
TTITLE3=The Last Goodbye
TTITLE4=Heaven In Your Heart
TTITLE5=A Picture Of You
TTITLE6=Pleasure Island
TTITLE7=My World Ended
TTITLE8=A Matter Of Time
TTITLE9=18 Years Old
TTITLE10=Over The Years
TTITLE11=Don´t Worry Baby
EXTD=
EXTT0=
EXTT1=
EXTT2=
EXTT3=
EXTT4=
EXTT5=
EXTT6=
EXTT7=
EXTT8=
EXTT9=
EXTT10=
EXTT11=
PLAYORDER=
